<svg width="644" height="171" viewBox="0 0 644 171" fill="none" xmlns="http://www.w3.org/2000/svg">
<g clip-path="url(#clip0)">
<path d="M195.168 49.636C195.669 48.696 196.515 48.038 197.706 47.662C198.897 47.286 200.401 47.098 202.218 47.098C204.035 47.098 205.477 47.2547 206.542 47.568C207.607 47.8813 208.422 48.2573 208.986 48.696C209.55 49.1347 209.989 49.7613 210.302 50.576C210.615 51.6413 210.772 53.2707 210.772 55.464V107.634C210.772 109.075 210.709 110.172 210.584 110.924C210.521 111.613 210.239 112.428 209.738 113.368C208.861 115.06 206.417 115.906 202.406 115.906C198.019 115.906 195.45 114.747 194.698 112.428C194.322 111.363 194.134 109.733 194.134 107.54V88.458H169.224V107.634C169.224 109.075 169.161 110.172 169.036 110.924C168.973 111.613 168.691 112.428 168.19 113.368C167.313 115.06 164.869 115.906 160.858 115.906C156.471 115.906 153.902 114.747 153.15 112.428C152.774 111.363 152.586 109.733 152.586 107.54V55.37C152.586 53.9287 152.617 52.8633 152.68 52.174C152.805 51.422 153.119 50.576 153.62 49.636C154.497 47.944 156.941 47.098 160.952 47.098C165.339 47.098 167.939 48.2573 168.754 50.576C169.067 51.6413 169.224 53.2707 169.224 55.464V74.64H194.134V55.37C194.134 53.9287 194.165 52.8633 194.228 52.174C194.353 51.422 194.667 50.576 195.168 49.636ZM254.69 71.726C255.066 68.2167 257.542 66.462 262.116 66.462C264.56 66.462 266.378 66.65 267.568 67.026C268.759 67.402 269.574 68.06 270.012 69C270.514 69.94 270.796 70.786 270.858 71.538C270.984 72.2273 271.046 73.2927 271.046 74.734V107.634C271.046 109.075 270.984 110.172 270.858 110.924C270.796 111.613 270.545 112.428 270.106 113.368C269.229 114.997 267.067 115.812 263.62 115.812C260.236 115.812 257.949 115.405 256.758 114.59C255.63 113.713 254.972 112.459 254.784 110.83C252.466 114.151 248.58 115.812 243.128 115.812C237.739 115.812 232.726 113.337 228.088 108.386C223.451 103.435 221.132 97.7013 221.132 91.184C221.132 84.604 223.451 78.87 228.088 73.982C232.788 69.0313 237.927 66.556 243.504 66.556C245.635 66.556 247.578 66.932 249.332 67.684C251.087 68.436 252.309 69.1567 252.998 69.846C253.688 70.4727 254.252 71.0993 254.69 71.726ZM237.582 91.278C237.582 93.346 238.397 95.226 240.026 96.918C241.656 98.5473 243.63 99.362 245.948 99.362C248.267 99.362 250.178 98.516 251.682 96.824C253.249 95.132 254.032 93.2833 254.032 91.278C254.032 89.21 253.28 87.2987 251.776 85.544C250.335 83.7893 248.361 82.912 245.854 82.912C243.41 82.912 241.405 83.7893 239.838 85.544C238.334 87.2987 237.582 89.21 237.582 91.278ZM326.993 67.026C330.69 68.6553 332.539 70.6293 332.539 72.948C332.539 74.076 332.288 75.1413 331.787 76.144C331.285 77.1467 331.035 77.6793 331.035 77.742L306.407 132.826C305.905 134.017 305.467 134.925 305.091 135.552C304.777 136.179 304.245 136.774 303.493 137.338C302.741 137.902 301.801 138.184 300.673 138.184C299.545 138.184 297.884 137.714 295.691 136.774C291.993 135.145 290.145 133.202 290.145 130.946C290.145 129.442 293.153 122.267 299.169 109.42L280.463 77.93C279.209 75.862 278.583 74.3267 278.583 73.324C278.583 71.3187 280.275 69.3133 283.659 67.308C285.789 66.0547 287.45 65.428 288.641 65.428C289.831 65.428 290.803 65.6787 291.555 66.18C292.307 66.6813 292.839 67.214 293.153 67.778C293.529 68.2793 295.252 71.1933 298.323 76.52C301.456 81.784 304.433 86.7033 307.253 91.278C307.566 90.2753 309.258 86.4213 312.329 79.716C315.399 72.948 317.029 69.3447 317.217 68.906C317.467 68.4673 317.843 67.9347 318.345 67.308C319.159 66.2427 320.287 65.71 321.729 65.71C323.233 65.71 324.987 66.1487 326.993 67.026Z" fill="#0F2F57"/>
<path d="M424.331 47.474C428.53 48.978 430.629 50.9833 430.629 53.49C430.629 54.3047 430.253 55.84 429.501 58.096L411.453 110.266C411.328 110.705 411.108 111.237 410.795 111.864C410.482 112.491 409.636 113.337 408.257 114.402C406.941 115.405 405.343 115.906 403.463 115.906C401.646 115.906 400.048 115.405 398.669 114.402C397.353 113.337 396.476 112.303 396.037 111.3L385.039 78.87C378.083 99.4247 374.542 109.89 374.417 110.266C374.292 110.642 374.01 111.175 373.571 111.864C373.132 112.553 372.631 113.18 372.067 113.744C370.626 115.185 368.902 115.906 366.897 115.906C364.892 115.906 363.231 115.436 361.915 114.496C360.662 113.556 359.816 112.616 359.377 111.676L358.719 110.266L340.577 58.096C339.888 56.028 339.543 54.4927 339.543 53.49C339.543 50.9833 341.642 49.0093 345.841 47.568C347.658 46.9413 349.288 46.628 350.729 46.628C352.233 46.628 353.361 47.1293 354.113 48.132C354.928 49.1347 355.648 50.67 356.275 52.738L366.615 84.134L376.861 53.208C377.738 50.576 379.336 48.7587 381.655 47.756C382.658 47.3173 383.942 47.098 385.509 47.098C387.138 47.098 388.642 47.6307 390.021 48.696C391.4 49.6987 392.277 50.7013 392.653 51.704L403.463 84.322L413.803 52.738C414.304 51.2967 414.712 50.2313 415.025 49.542C415.338 48.8527 415.902 48.1947 416.717 47.568C417.594 46.8787 418.66 46.534 419.913 46.534C421.166 46.534 422.639 46.8473 424.331 47.474ZM432.012 91.278C432.012 83.758 434.644 77.554 439.908 72.666C445.172 67.778 451.188 65.334 457.956 65.334C464.724 65.334 470.709 67.778 475.91 72.666C481.111 77.4913 483.712 83.664 483.712 91.184C483.712 96.3853 482.365 101.023 479.67 105.096C476.975 109.107 473.685 112.083 469.8 114.026C465.977 115.906 461.998 116.846 457.862 116.846C453.726 116.846 449.715 115.843 445.83 113.838C441.945 111.77 438.655 108.762 435.96 104.814C433.328 100.803 432.012 96.2913 432.012 91.278ZM451.658 98.046C453.663 99.55 455.7 100.302 457.768 100.302C459.836 100.302 461.904 99.5187 463.972 97.952C466.04 96.3853 467.074 94.0667 467.074 90.996C467.074 87.9253 466.103 85.638 464.16 84.134C462.217 82.63 460.118 81.878 457.862 81.878C455.606 81.878 453.507 82.6613 451.564 84.228C449.621 85.7947 448.65 88.1133 448.65 91.184C448.65 94.192 449.653 96.4793 451.658 98.046ZM527.667 67.026C528.858 67.402 529.829 68.06 530.581 69C531.396 69.8773 531.803 71.3187 531.803 73.324C531.803 75.3293 531.208 77.5227 530.017 79.904C528.826 82.2853 527.103 83.476 524.847 83.476C523.719 83.476 522.622 83.2253 521.557 82.724C520.554 82.2227 519.207 81.972 517.515 81.972C515.823 81.972 514.225 82.5673 512.721 83.758C511.28 84.9487 510.559 86.39 510.559 88.082V107.822C510.559 109.263 510.496 110.36 510.371 111.112C510.308 111.801 510.026 112.616 509.525 113.556C508.585 115.185 506.141 116 502.193 116C499.185 116 497.023 115.467 495.707 114.402C494.704 113.525 494.14 112.177 494.015 110.36C494.015 109.733 494.015 108.825 494.015 107.634V74.64C494.015 73.1987 494.046 72.1333 494.109 71.444C494.234 70.692 494.516 69.8773 494.955 69C495.832 67.308 498.276 66.462 502.287 66.462C506.047 66.462 508.397 67.1827 509.337 68.624C510.026 69.6267 510.371 70.6607 510.371 71.726C510.684 71.2873 511.123 70.7547 511.687 70.128C512.314 69.5013 513.598 68.6553 515.541 67.59C517.484 66.5247 519.176 65.992 520.617 65.992C522.121 65.992 523.374 66.086 524.377 66.274C525.38 66.3993 526.476 66.65 527.667 67.026ZM571.542 45.876C572.044 44.936 572.89 44.278 574.08 43.902C575.271 43.526 576.838 43.338 578.78 43.338C580.786 43.338 582.384 43.526 583.574 43.902C584.765 44.278 585.58 44.936 586.018 45.876C586.52 46.816 586.802 47.662 586.864 48.414C586.99 49.1033 587.052 50.1687 587.052 51.61V107.728C587.052 109.169 586.99 110.266 586.864 111.018C586.802 111.707 586.52 112.491 586.018 113.368C585.078 115.06 582.415 115.906 578.028 115.906C573.704 115.906 571.292 114.371 570.79 111.3C568.158 114.308 564.492 115.812 559.792 115.812C554.152 115.812 549.014 113.368 544.376 108.48C539.739 103.529 537.42 97.7953 537.42 91.278C537.42 84.698 539.739 78.9327 544.376 73.982C549.076 69.0313 554.215 66.556 559.792 66.556C564.43 66.556 568.033 68.1227 570.602 71.256V51.516C570.602 50.0747 570.634 49.0093 570.696 48.32C570.822 47.568 571.104 46.7533 571.542 45.876ZM556.314 96.918C557.944 98.61 559.918 99.456 562.236 99.456C564.555 99.456 566.466 98.61 567.97 96.918C569.537 95.226 570.32 93.3773 570.32 91.372C570.32 89.304 569.568 87.3927 568.064 85.638C566.623 83.8833 564.649 83.006 562.142 83.006C559.636 83.006 557.63 83.8833 556.126 85.638C554.622 87.33 553.87 89.21 553.87 91.278C553.87 93.346 554.685 95.226 556.314 96.918ZM599.71 101.712C600.337 100.459 601.277 99.6127 602.53 99.174C603.846 98.7353 605.851 98.516 608.546 98.516C611.303 98.516 613.277 99.1113 614.468 100.302C615.721 101.493 616.348 103.373 616.348 105.942V107.446C616.348 108.95 616.285 110.078 616.16 110.83C616.097 111.519 615.815 112.365 615.314 113.368C614.311 115.185 611.899 116.094 608.076 116.094C604.316 116.094 601.809 115.499 600.556 114.308C599.365 113.055 598.77 110.673 598.77 107.164C598.77 104.72 599.083 102.903 599.71 101.712ZM612.306 90.714C611.115 91.0273 609.517 91.184 607.512 91.184C605.507 91.184 603.909 91.0273 602.718 90.714C601.527 90.4007 600.681 89.8367 600.18 89.022C599.741 88.2073 599.459 87.4867 599.334 86.86C599.271 86.2333 599.24 85.262 599.24 83.946V54.148C599.24 52.832 599.271 51.8607 599.334 51.234C599.459 50.5447 599.773 49.7927 600.274 48.978C600.775 48.1633 601.621 47.5993 602.812 47.286C604.003 46.91 605.601 46.722 607.606 46.722C609.611 46.722 611.209 46.91 612.4 47.286C613.591 47.5993 614.405 48.1947 614.844 49.072C615.345 49.8867 615.627 50.6387 615.69 51.328C615.815 51.9547 615.878 52.926 615.878 54.242V84.04C615.878 85.356 615.815 86.3273 615.69 86.954C615.627 87.5807 615.345 88.3013 614.844 89.116C614.343 89.868 613.497 90.4007 612.306 90.714Z" fill="#FE245C"/>
<path d="M39.3333 66.8784L39.3333 61.5037C39.3333 60.0782 38.7714 58.7112 37.7712 57.7032C36.771 56.6953 35.4145 56.129 34 56.129C32.5855 56.129 31.229 56.6953 30.2288 57.7032C29.2286 58.7112 28.6667 60.0782 28.6667 61.5037V66.8784H23.3333C21.9188 66.8784 20.5623 67.4446 19.5621 68.4526C18.5619 69.4605 18 70.8276 18 72.2531C18 73.6785 18.5619 75.0456 19.5621 76.0536C20.5623 77.0615 21.9188 77.6278 23.3333 77.6278H28.6667V83.0025C28.6667 84.4279 29.2286 85.795 30.2288 86.8029C31.229 87.8109 32.5855 88.3771 34 88.3771C35.4145 88.3771 36.771 87.8109 37.7712 86.8029C38.7714 85.795 39.3333 84.4279 39.3333 83.0025V77.6278H44.6667C46.0812 77.6278 47.4377 77.0615 48.4379 76.0536C49.4381 75.0456 50 73.6785 50 72.2531C50 70.8276 49.4381 69.4605 48.4379 68.4526C47.4377 67.4446 46.0812 66.8784 44.6667 66.8784H39.3333ZM51.696 45.3796L80.304 45.3796C85.1255 42.1547 90.7245 40.3077 96.5051 40.0352C102.286 39.7628 108.031 41.0751 113.13 43.8325C118.23 46.5899 122.491 50.6891 125.462 55.6938C128.433 60.6985 130.001 66.4213 130 72.2531C130 90.0648 115.675 126 98 126C87.4613 126 78.112 113.219 72.2827 99.1265L59.7173 99.1265C53.8933 113.219 44.5387 126 34 126C16.3253 126 2 90.0648 2 72.2531C1.99912 66.4213 3.56748 60.6985 6.53812 55.6938C9.50876 50.6891 13.7705 46.5899 18.8696 43.8325C23.9687 41.0751 29.7144 39.7628 35.4949 40.0352C41.2755 40.3077 46.8745 42.1547 51.696 45.3796V45.3796ZM98 66.8784C99.4145 66.8784 100.771 66.3121 101.771 65.3042C102.771 64.2962 103.333 62.9291 103.333 61.5037C103.333 60.0782 102.771 58.7112 101.771 57.7032C100.771 56.6953 99.4145 56.129 98 56.129C96.5855 56.129 95.229 56.6953 94.2288 57.7032C93.2286 58.7112 92.6667 60.0782 92.6667 61.5037C92.6667 62.9291 93.2286 64.2962 94.2288 65.3042C95.229 66.3121 96.5855 66.8784 98 66.8784ZM87.3333 77.6278C88.7478 77.6278 90.1044 77.0615 91.1046 76.0536C92.1048 75.0456 92.6667 73.6785 92.6667 72.2531C92.6667 70.8276 92.1048 69.4605 91.1046 68.4526C90.1044 67.4446 88.7478 66.8784 87.3333 66.8784C85.9188 66.8784 84.5623 67.4446 83.5621 68.4526C82.5619 69.4605 82 70.8276 82 72.2531C82 73.6785 82.5619 75.0456 83.5621 76.0536C84.5623 77.0615 85.9188 77.6278 87.3333 77.6278V77.6278ZM108.667 77.6278C110.081 77.6278 111.438 77.0615 112.438 76.0536C113.438 75.0456 114 73.6785 114 72.2531C114 70.8276 113.438 69.4605 112.438 68.4526C111.438 67.4446 110.081 66.8784 108.667 66.8784C107.252 66.8784 105.896 67.4446 104.895 68.4526C103.895 69.4605 103.333 70.8276 103.333 72.2531C103.333 73.6785 103.895 75.0456 104.895 76.0536C105.896 77.0615 107.252 77.6278 108.667 77.6278ZM98 88.3771C99.4145 88.3771 100.771 87.8109 101.771 86.8029C102.771 85.795 103.333 84.4279 103.333 83.0025C103.333 81.577 102.771 80.2099 101.771 79.202C100.771 78.194 99.4145 77.6278 98 77.6278C96.5855 77.6278 95.229 78.194 94.2288 79.202C93.2286 80.2099 92.6667 81.577 92.6667 83.0025C92.6667 84.4279 93.2286 85.795 94.2288 86.8029C95.229 87.8109 96.5855 88.3771 98 88.3771Z" fill="#FE245C"/>
</g>
<defs>
<clipPath id="clip0">
<rect width="644" height="171" fill="white"/>
</clipPath>
</defs>
</svg>
