<svg xmlns="http://www.w3.org/2000/svg"  viewBox="0 0 100 100" width="100px" height="100px"><path fill="#c7ede6" d="M87.215,56.71C88.35,54.555,89,52.105,89,49.5c0-6.621-4.159-12.257-10.001-14.478 C78.999,35.015,79,35.008,79,35c0-11.598-9.402-21-21-21c-9.784,0-17.981,6.701-20.313,15.757C36.211,29.272,34.638,29,33,29 c-7.692,0-14.023,5.793-14.89,13.252C12.906,43.353,9,47.969,9,53.5C9,59.851,14.149,65,20.5,65c0.177,0,0.352-0.012,0.526-0.022 C21.022,65.153,21,65.324,21,65.5C21,76.822,30.178,86,41.5,86c6.437,0,12.175-2.972,15.934-7.614C59.612,80.611,62.64,82,66,82 c4.65,0,8.674-2.65,10.666-6.518C77.718,75.817,78.837,76,80,76c6.075,0,11-4.925,11-11C91,61.689,89.53,58.727,87.215,56.71z"/><path fill="#fff" d="M14.405 57H4.5C4.224 57 4 56.776 4 56.5S4.224 56 4.5 56h9.905c.276 0 .5.224.5.5S14.682 57 14.405 57zM17.5 57h-1c-.276 0-.5-.224-.5-.5s.224-.5.5-.5h1c.276 0 .5.224.5.5S17.777 57 17.5 57zM22.491 59H13.5c-.276 0-.5-.224-.5-.5s.224-.5.5-.5h8.991c.276 0 .5.224.5.5S22.767 59 22.491 59zM11.5 59h-1c-.276 0-.5-.224-.5-.5s.224-.5.5-.5h1c.276 0 .5.224.5.5S11.777 59 11.5 59zM8.5 59h-2C6.224 59 6 58.776 6 58.5S6.224 58 6.5 58h2C8.776 58 9 58.224 9 58.5S8.777 59 8.5 59zM14.5 61h-2c-.276 0-.5-.224-.5-.5s.224-.5.5-.5h2c.276 0 .5.224.5.5S14.776 61 14.5 61zM17.5 52c-.177 0-.823 0-1 0-.276 0-.5.224-.5.5 0 .276.224.5.5.5.177 0 .823 0 1 0 .276 0 .5-.224.5-.5C18 52.224 17.776 52 17.5 52zM17.5 54c-.177 0-4.823 0-5 0-.276 0-.5.224-.5.5 0 .276.224.5.5.5.177 0 4.823 0 5 0 .276 0 .5-.224.5-.5C18 54.224 17.776 54 17.5 54zM22.5 56c-.177 0-2.823 0-3 0-.276 0-.5.224-.5.5 0 .276.224.5.5.5.177 0 2.823 0 3 0 .276 0 .5-.224.5-.5C23 56.224 22.776 56 22.5 56z"/><g><path fill="#fff" d="M74 24H64c-.276 0-.5-.224-.5-.5S63.724 23 64 23h10c.276 0 .5.224.5.5S74.276 24 74 24zM78 24h-2c-.276 0-.5-.224-.5-.5S75.724 23 76 23h2c.276 0 .5.224.5.5S78.276 24 78 24zM83 26H73c-.276 0-.5-.224-.5-.5S72.724 25 73 25h10c.276 0 .5.224.5.5S83.277 26 83 26zM71 26h-1c-.276 0-.5-.224-.5-.5S69.724 25 70 25h1c.276 0 .5.224.5.5S71.276 26 71 26zM67.875 26H66c-.276 0-.5-.224-.5-.5S65.724 25 66 25h1.875c.276 0 .5.224.5.5S68.151 26 67.875 26zM77 22h-5c-.276 0-.5-.224-.5-.5S71.724 21 72 21h5c.276 0 .5.224.5.5S77.277 22 77 22zM74 28h-2c-.276 0-.5-.224-.5-.5S71.724 27 72 27h2c.276 0 .5.224.5.5S74.276 28 74 28z"/></g><g><path fill="#fdfcef" d="M37,39h5.75c2.485,0.75,4.5-1.265,4.5-3.75c0-2.333-1.782-4.229-4.055-4.455 c0.022-0.181,0.055-0.358,0.055-0.545c0-2.485-2.015-4.5-4.5-4.5c-1.438,0-2.703,0.686-3.527,1.736 c-0.14-2.636-2.302-4.736-4.973-4.736c-2.761,0-5,2.239-5,5c0,0.446,0.077,0.87,0.187,1.282c-0.642-0.777-1.6-1.282-2.687-1.282 c-1.781,0-3.234,1.335-3.455,3.055c-0.181-0.022-0.358-0.055-0.545-0.055c-2.485,0-4.5,2.015-4.5,4.5s2.015,4.5,4.5,3.75h9.5H34v1 h3V39z"/><path fill="#472b29" d="M30.5,22c-3.033,0-5.5,2.467-5.5,5.5c0,0.016,0,0.031,0,0.047C24.398,27.192,23.71,27,23,27 c-1.831,0-3.411,1.261-3.858,3.005C19.095,30.002,19.048,30,19,30c-3.099,0-5.549,2.834-4.893,6.047 C14.587,38.398,16.796,40,19.196,40l14.679,0c0.276,0,0.5-0.224,0.5-0.5s-0.224-0.5-0.5-0.5l-14.718,0 c-1.92,0-3.687-1.282-4.071-3.163C14.561,33.267,16.521,31,19,31c0.117,0,0.23,0.017,0.343,0.032l0.141,0.019 c0.021,0.003,0.041,0.004,0.062,0.004c0.246,0,0.462-0.185,0.495-0.437C20.232,29.125,21.504,28,23,28 c0.885,0,1.723,0.401,2.301,1.1c0.098,0.118,0.241,0.182,0.386,0.182c0.078,0,0.156-0.018,0.228-0.056 c0.209-0.107,0.314-0.346,0.254-0.573c-0.16-0.6-0.202-1.069-0.147-1.549c0.24-2.127,1.959-3.909,4.092-4.088 c2.551-0.215,4.725,1.728,4.859,4.246c0.011,0.208,0.15,0.387,0.349,0.45c0.05,0.016,0.101,0.024,0.152,0.024 c0.15,0,0.296-0.069,0.392-0.192C36.638,26.563,37.779,26,39,26c2.206,0,4,1.794,4,4c0,0.117-0.017,0.23-0.032,0.343l-0.019,0.141 c-0.016,0.134,0.022,0.268,0.106,0.373c0.084,0.105,0.207,0.172,0.34,0.185c2.352,0.234,4.042,2.429,3.504,4.865 C46.491,37.76,44.725,39,42.827,39l-5.952,0c-0.276,0-0.5,0.224-0.5,0.5s0.224,0.5,0.5,0.5l5.938,0 c2.467,0,4.708-1.704,5.115-4.138c0.462-2.763-1.344-5.22-3.931-5.74C43.999,30.082,44,30.041,44,30c0-2.757-2.243-5-5-5 c-1.176,0-2.293,0.416-3.183,1.164C35.219,23.76,33.055,22,30.5,22L30.5,22z"/><path fill="#472b29" d="M28.75 29.25c-1.403 0-2.609.999-2.913 2.341-.367-.222-.786-.341-1.212-.341-1.202 0-2.198.897-2.353 2.068-.203-.045-.396-.068-.585-.068-1.529 0-2.811 1.2-2.918 2.732-.009.138.094.257.232.267.006 0 .012 0 .018 0 .13 0 .24-.101.249-.232.089-1.271 1.151-2.268 2.419-2.268.229 0 .47.042.738.127.022.007.045.01.067.01.055 0 .11-.02.156-.054.064-.047.102-.129.102-.209 0-1.034.841-1.875 1.875-1.875.447 0 .885.168 1.231.473.047.041.106.063.165.063.032 0 .063-.006.093-.019.088-.035.148-.117.155-.212.102-1.292 1.191-2.305 2.479-2.305.208 0 .425.034.682.107.023.007.047.01.07.01.109 0 .207-.073.239-.182.038-.133-.039-.271-.172-.309C29.267 29.29 29.006 29.25 28.75 29.25L28.75 29.25zM42.633 30.75c-1.326 0-2.508.897-2.874 2.182-.038.133.039.271.172.309.023.007.046.01.068.01.109 0 .209-.072.24-.182.305-1.071 1.289-1.818 2.393-1.818.117 0 .23.014.342.029.012.002.023.003.035.003.121 0 .229-.092.246-.217.019-.137-.077-.263-.214-.281C42.908 30.766 42.772 30.75 42.633 30.75L42.633 30.75z"/></g><g><path fill="#84a7d7" d="M36.662,69.867c0-0.217-0.101-0.421-0.271-0.554c-5.523-4.277-8.69-10.541-8.69-17.185 C27.7,39.762,38.601,29.7,52,29.7s24.3,10.062,24.3,22.429S65.399,74.558,52,74.558c-2.715,0-5.394-0.417-7.962-1.239 c-0.07-0.022-0.143-0.033-0.214-0.033c-0.122,0-0.242,0.032-0.351,0.094l-6.812,3.937V69.867z"/><path fill="#472b29" d="M52,30.4c13.013,0,23.6,9.748,23.6,21.729c0,11.981-10.587,21.729-23.6,21.729 c-2.644,0-5.251-0.406-7.749-1.206c-0.139-0.045-0.283-0.067-0.427-0.067c-0.243,0-0.485,0.063-0.701,0.188l-5.761,3.329v-6.235 c0-0.433-0.2-0.842-0.543-1.107c-5.351-4.145-8.42-10.208-8.42-16.632C28.4,40.147,38.987,30.4,52,30.4 M52,29 c-13.807,0-25,10.355-25,23.129c0,7.126,3.485,13.496,8.962,17.739v8.661l7.862-4.543c2.563,0.821,5.312,1.272,8.176,1.272 c13.807,0,25-10.355,25-23.129C77,39.355,65.807,29,52,29L52,29z"/></g><g><path fill="#472b29" d="M72.235,46.613c-0.105,0-0.203-0.067-0.237-0.173c-0.093-0.282-0.193-0.562-0.299-0.838 c-0.414-1.077-0.936-2.126-1.551-3.117c-0.072-0.117-0.036-0.271,0.081-0.345c0.117-0.072,0.271-0.036,0.345,0.081 c0.631,1.018,1.166,2.095,1.592,3.201c0.109,0.284,0.212,0.571,0.307,0.863c0.043,0.131-0.028,0.271-0.16,0.314 C72.287,46.609,72.261,46.613,72.235,46.613z"/></g><g><path fill="#472b29" d="M52,72.003c-11.842,0-21.477-8.968-21.477-19.991S40.158,32.021,52,32.021 c6.143,0,12.004,2.457,16.08,6.74c0.311,0.325,0.61,0.661,0.892,0.999c0.089,0.105,0.075,0.264-0.031,0.352 s-0.264,0.075-0.352-0.031c-0.275-0.329-0.568-0.657-0.87-0.976c-3.983-4.184-9.712-6.584-15.719-6.584 c-11.566,0-20.977,8.744-20.977,19.491S40.434,71.503,52,71.503s20.977-8.744,20.977-19.491c0-0.979-0.079-1.961-0.234-2.921 c-0.021-0.137,0.071-0.265,0.207-0.287c0.146-0.014,0.265,0.072,0.287,0.207c0.159,0.986,0.24,1.996,0.24,3.001 C73.477,63.035,63.842,72.003,52,72.003z"/></g><g><path fill="#fffef4" d="M35.962 59.362L49.905 45.345 55.482 50.952 67.566 45.345 54.553 59.362 48.976 52.821z"/><path fill="#472b29" d="M35.962,59.612c-0.078,0-0.154-0.036-0.202-0.104c-0.072-0.099-0.062-0.236,0.025-0.323 l13.943-14.018c0.094-0.094,0.259-0.094,0.354,0l5.453,5.483l11.925-5.533c0.11-0.05,0.238-0.018,0.308,0.079 c0.07,0.097,0.063,0.23-0.019,0.317L54.736,59.532c-0.049,0.053-0.134,0.101-0.188,0.08c-0.071-0.002-0.139-0.033-0.186-0.088 l-5.449-6.393l-12.839,6.454C36.038,59.604,36,59.612,35.962,59.612z M48.976,52.57c0.071,0,0.142,0.03,0.19,0.088l5.395,6.328 l11.957-12.879l-10.93,5.071c-0.097,0.044-0.207,0.024-0.283-0.05l-5.399-5.43L37.224,58.448l11.64-5.852 C48.899,52.579,48.938,52.57,48.976,52.57z"/></g><g><path fill="#fdfcef" d="M68.25,70.5c0,0-1.567,0-3.5,0s-3.5-1.567-3.5-3.5c0-1.781,1.335-3.234,3.055-3.455 C64.277,63.366,64.25,63.187,64.25,63c0-1.933,1.567-3.5,3.5-3.5c1.032,0,1.95,0.455,2.59,1.165 c0.384-1.808,1.987-3.165,3.91-3.165c2.209,0,4,1.791,4,4c0,0.191-0.03,0.374-0.056,0.558c0.428-0.344,0.965-0.558,1.556-0.558 c1.228,0,2.245,0.887,2.455,2.055c0.179-0.028,0.358-0.055,0.545-0.055c1.933,0,3.5,1.567,3.5,3.5s-1.567,3.5-3.5,3.5 s-7.5,0-7.5,0V71h-7V70.5z"/><path fill="#472b29" d="M66.5 66c.138 0 .25-.112.25-.25 0-1.223-.995-2.218-2.218-2.218-.034.009-.737-.001-1.244.136-.133.036-.212.173-.176.306.036.134.173.213.306.176.444-.12 1.1-.12 1.113-.118.948 0 1.719.771 1.719 1.718C66.25 65.888 66.362 66 66.5 66zM73.25 70A.5.5 0 1 0 73.25 71 .5.5 0 1 0 73.25 70z"/><path fill="#472b29" d="M64.75,71h3.5c0.276,0,0.5-0.224,0.5-0.5s-0.224-0.5-0.5-0.5h-3.5c-1.654,0-3-1.346-3-3 c0-1.496,1.125-2.768,2.618-2.959c0.134-0.018,0.255-0.088,0.336-0.196s0.115-0.244,0.094-0.377 C64.775,63.314,64.75,63.16,64.75,63c0-1.654,1.346-3,3-3c0.85,0,1.638,0.355,2.219,1c0.125,0.139,0.321,0.198,0.5,0.148 c0.182-0.049,0.321-0.195,0.36-0.379C71.17,59.165,72.609,58,74.25,58c1.93,0,3.5,1.57,3.5,3.5c0,0.143-0.021,0.28-0.041,0.418 c-0.029,0.203,0.063,0.438,0.242,0.54c0.179,0.102,0.396,0.118,0.556-0.01C78.872,62.155,79.301,62,79.75,62 c0.966,0,1.792,0.691,1.963,1.644c0.048,0.267,0.296,0.446,0.569,0.405C82.436,64.025,82.59,64,82.75,64c1.654,0,3,1.346,3,3 s-1.346,3-3,3h-7.5c-0.276,0-0.5,0.224-0.5,0.5s0.224,0.5,0.5,0.5h7.5c2.206,0,4-1.794,4-4s-1.794-4-4-4 c-0.059,0-0.116,0.002-0.174,0.006C82.162,61.82,81.039,61,79.75,61c-0.349,0-0.689,0.061-1.011,0.18 C78.574,58.847,76.624,57,74.25,57c-1.831,0-3.466,1.127-4.153,2.774C69.417,59.276,68.595,59,67.75,59c-2.206,0-4,1.794-4,4 c0,0.048,0.001,0.095,0.004,0.142C62.011,63.59,60.75,65.169,60.75,67C60.75,69.206,62.544,71,64.75,71z"/><path fill="#472b29" d="M70.25,70c0.159,0,0.841,0,1,0c0.276,0,0.5,0.224,0.5,0.5c0,0.276-0.224,0.5-0.5,0.5 c-0.159,0-0.841,0-1,0c-0.276,0-0.5-0.224-0.5-0.5C69.75,70.224,69.974,70,70.25,70z"/></g></svg>